<svg width="849" height="119" viewBox="0 0 849 119" fill="none" xmlns="http://www.w3.org/2000/svg">
<path d="M42.6241 81.2765C39.8167 91.5493 33.3738 98.1802 23.8586 101.852C22.9703 102.195 21.9724 102.326 21.0169 102.381C16.9307 102.616 14.4063 99.989 14.6929 95.807C14.9618 91.8831 16.7023 88.5091 18.892 85.4088C22.2124 80.7076 26.4241 77.0177 31.6695 74.6752C32.6137 74.2536 33.6272 73.9358 34.6393 73.744C40.4405 72.6443 43.1021 75.1126 42.6241 81.2765Z" fill="#7042D2"/>
<path d="M6.83676 66.0108C12.9653 62.1856 19.5234 60.4956 26.5739 60.5745C28.6286 60.5975 30.6691 60.9846 32.5835 61.8388C36.4422 63.5607 37.271 67.1024 34.564 70.2649C33.3347 71.7012 31.9848 73.0074 30.3482 73.9904C23.9241 77.8489 16.9896 79.7505 9.40116 79.1554C8.49611 79.0844 7.57422 78.9749 6.70013 78.7238C4.35648 78.0506 2.0682 77.0427 1.40702 74.4062C0.719857 71.6661 2.37796 69.7363 4.17955 68.0443C4.94455 67.3257 5.8351 66.7455 6.83676 66.0108Z" fill="#7042D2"/>
<path d="M31.4716 46.549C33.3232 47.7287 34.8083 49.0039 35.6467 50.9037C36.6651 53.2116 36.0287 55.196 33.8381 56.5339C31.7718 57.796 29.4922 58.2467 27.1791 58.3305C18.7349 58.6366 10.9992 56.5805 4.15171 51.71C3.53976 51.2747 2.97249 50.7445 2.48421 50.1693C-0.452998 46.7092 0.453206 43.481 4.79993 41.8389C8.40452 40.4773 12.0711 40.5889 15.7249 41.051C21.307 41.757 26.5812 43.3554 31.4716 46.549Z" fill="#7042D2"/>
<path d="M30.3352 23.9449C34.1075 27.4045 37.4263 30.9792 39.8249 35.348C40.5553 36.6784 41.2003 38.0451 41.5625 39.54C42.5777 43.73 40.5525 45.8197 36.4758 44.7772C34.0494 44.1567 31.9125 42.9412 29.8662 41.5205C24.4314 37.7468 19.9231 33.0811 16.6249 27.2494C15.7629 25.7252 15.1194 24.1041 14.8467 22.3485C14.3396 19.0847 16.013 17.3129 19.2343 17.854C22.5645 18.4134 25.3184 20.2653 28.0178 22.184C28.7505 22.7049 29.4569 23.2641 30.3352 23.9449Z" fill="#7042D2"/>
<path d="M41.4079 27.5044C39.2296 21.5544 37.7501 15.6509 38.1579 9.46496C38.3062 7.21422 38.3251 4.53893 40.9346 3.82615C43.6098 3.09546 45.1785 5.26083 46.4774 7.28062C51.5847 15.2221 54.0965 23.8862 53.6067 33.2959C53.497 35.4034 53.2322 37.798 50.8552 38.5167C48.5109 39.2255 47.1582 37.1796 45.8626 35.6596C43.8696 33.3215 42.6021 30.518 41.4079 27.5044Z" fill="#7042D2"/>
<path d="M64.2985 37.6844C61.7203 39.509 60.2202 39.0383 59.3757 36.1802C58.3104 32.5753 58.6944 28.913 59.2628 25.2905C60.3692 18.2397 62.2441 11.4594 66.3177 5.51492C66.6646 5.00874 67.0392 4.49808 67.492 4.09616C69.5798 2.24325 71.5227 2.76702 72.4 5.45803C73.3137 8.26057 73.2023 11.152 72.8951 14.029C72.1104 21.3781 70.2815 28.3968 66.584 34.8228C65.9955 35.8456 65.2642 36.7201 64.2985 37.6844Z" fill="#7042D2"/>
<path d="M70.6594 42.7036C70.598 38.6522 72.7373 35.821 74.7846 33.0037C78.9751 27.2373 83.9569 22.3057 90.1321 18.7193C90.9107 18.2671 91.7688 17.9271 92.628 17.6367C93.7962 17.2417 95.0726 16.9023 96.132 17.9528C97.2811 19.0925 96.886 20.4653 96.4919 21.7284C95.7015 24.262 94.3336 26.4831 92.8278 28.579C88.8465 34.1205 84.1082 38.8741 78.3069 42.4665C76.9499 43.3068 75.5308 44.0469 73.9427 44.3577C72.6091 44.6187 71.2846 44.6097 70.6594 42.7036Z" fill="#7042D2"/>
<path d="M62.9878 104.387C60.8555 98.0048 59.294 91.6889 59.5629 85.0188C59.5786 84.6288 59.5717 84.2355 59.6218 83.8495C59.8266 82.2695 60.0728 80.5215 61.7561 79.9907C63.4905 79.4437 64.663 80.8275 65.4811 82.1136C71.0194 90.8202 73.5944 100.456 73.4163 110.86C73.3873 112.554 73.4264 114.835 71.3244 115.414C69.0729 116.034 67.9722 114.068 66.8998 112.461C65.2637 110.01 64.1197 107.299 62.9878 104.387Z" fill="#7042D2"/>
<path d="M48.0134 107.556C46.9995 109.838 45.9153 111.883 44.3674 113.615C43.61 114.463 42.6964 115.323 41.4422 115.068C40.1317 114.801 39.8922 113.583 39.6342 112.495C38.8869 109.344 39.284 106.141 39.8241 102.973C41.0929 95.5328 43.072 88.3186 47.556 81.9918C48.377 80.8333 49.3399 79.667 50.851 79.9641C52.531 80.2945 52.7339 81.9156 52.9154 83.3335C53.5831 88.5498 52.4575 93.6478 51.141 98.704C50.3685 101.671 49.3742 104.585 48.0134 107.556Z" fill="#7042D2"/>
<path d="M73.7437 74.9424C80.1169 78.8782 85.3566 83.883 90.1904 89.3525C92.2133 91.6414 94.2838 93.9043 95.8715 96.556C96.029 96.819 96.2723 97.0389 96.3865 97.3167C96.7531 98.2079 97.7224 99.182 96.9319 100.07C96.0234 101.09 94.9483 100.184 94.0733 99.6601C91.2554 97.9738 88.7555 95.8299 86.3041 93.6557C81.0874 89.0287 76.3572 83.9286 72.3962 78.1238C72.1378 77.7452 71.8812 77.3556 71.6942 76.9384C71.3858 76.2501 70.8682 75.4893 71.49 74.7886C72.1292 74.0684 72.8842 74.5719 73.7437 74.9424Z" fill="#7042D2"/>
<path d="M154.172 92.1591C145.188 92.1591 137.675 89.1591 131.633 83.1592C125.67 77.1592 122.689 69.7777 122.689 61.0146C122.689 52.1725 125.67 44.791 131.633 38.87C137.675 32.87 145.188 29.87 154.172 29.87C159.976 29.87 165.263 31.2516 170.034 34.0148C174.804 36.7779 178.382 40.4884 180.767 45.1463L169.676 51.541C168.324 48.6989 166.257 46.4884 163.475 44.9094C160.771 43.2515 157.631 42.4226 154.053 42.4226C148.806 42.4226 144.393 44.1989 140.816 47.7515C137.317 51.3041 135.568 55.7251 135.568 61.0146C135.568 66.304 137.317 70.725 140.816 74.2776C144.393 77.8303 148.806 79.6066 154.053 79.6066C157.551 79.6066 160.692 78.7776 163.475 77.1197C166.337 75.4618 168.483 73.2513 169.914 70.4882L181.005 76.7645C178.461 81.5013 174.804 85.2513 170.034 88.0144C165.263 90.7775 159.976 92.1591 154.172 92.1591Z" fill="black"/>
<path d="M211.565 92.1591C202.819 92.1591 195.386 89.1591 189.264 83.1592C183.142 77.1592 180.081 69.7777 180.081 61.0146C180.081 52.2515 183.142 44.8699 189.264 38.87C195.386 32.87 202.819 29.87 211.565 29.87C220.39 29.87 227.824 32.87 233.866 38.87C239.988 44.8699 243.049 52.2515 243.049 61.0146C243.049 69.7777 239.988 77.1592 233.866 83.1592C227.824 89.1591 220.39 92.1591 211.565 92.1591ZM198.327 74.3961C201.905 77.9487 206.318 79.725 211.565 79.725C216.812 79.725 221.225 77.9487 224.803 74.3961C228.38 70.8435 230.169 66.383 230.169 61.0146C230.169 55.6462 228.38 51.1857 224.803 47.6331C221.225 44.0805 216.812 42.3042 211.565 42.3042C206.318 42.3042 201.905 44.0805 198.327 47.6331C194.75 51.1857 192.961 55.6462 192.961 61.0146C192.961 66.383 194.75 70.8435 198.327 74.3961Z" fill="black"/>
<path d="M260.896 20.1596C259.306 21.7385 257.398 22.528 255.172 22.528C252.946 22.528 250.998 21.7385 249.329 20.1596C247.738 18.5017 246.943 16.5675 246.943 14.357C246.943 12.1465 247.738 10.2518 249.329 8.67282C250.919 7.01493 252.866 6.18599 255.172 6.18599C257.478 6.18599 259.426 7.01493 261.016 8.67282C262.606 10.2518 263.401 12.1465 263.401 14.357C263.401 16.5675 262.566 18.5017 260.896 20.1596ZM248.732 90.6196V31.4095H261.612V90.6196H248.732Z" fill="black"/>
<path d="M301.968 29.87C308.806 29.87 314.331 32.0411 318.545 36.3832C322.759 40.7252 324.866 46.6857 324.866 54.2646V90.6196H311.986V55.5672C311.986 51.1462 310.793 47.7515 308.408 45.3831C306.023 43.0147 302.763 41.8305 298.629 41.8305C294.097 41.8305 290.44 43.2515 287.658 46.0936C284.875 48.8568 283.484 53.1199 283.484 58.883V90.6196H270.604V31.4095H283.484V38.9884C287.379 32.9095 293.541 29.87 301.968 29.87Z" fill="black"/>
<path d="M332.771 90.6196V4.17285H345.651V90.6196H332.771Z" fill="black"/>
<path d="M364.78 66.4619C365.734 70.9619 367.92 74.4355 371.339 76.8829C374.758 79.2513 378.932 80.4355 383.861 80.4355C390.698 80.4355 395.826 77.9881 399.245 73.0934L409.859 79.2513C403.976 87.8565 395.27 92.1591 383.742 92.1591C374.042 92.1591 366.211 89.2381 360.248 83.396C354.285 77.475 351.304 70.0145 351.304 61.0146C351.304 52.1725 354.245 44.791 360.129 38.87C366.012 32.87 373.565 29.87 382.788 29.87C391.533 29.87 398.688 32.9095 404.254 38.9884C409.899 45.0673 412.721 52.4488 412.721 61.133C412.721 62.4751 412.562 64.2514 412.244 66.4619H364.78ZM364.66 56.0409H399.722C398.847 51.2252 396.82 47.5936 393.64 45.1463C390.539 42.6989 386.882 41.4752 382.668 41.4752C377.898 41.4752 373.923 42.7779 370.743 45.3831C367.562 47.9883 365.535 51.541 364.66 56.0409Z" fill="black"/>
<path d="M455.952 31.4095H469.666L446.769 92.5144C441.045 107.83 431.345 115.093 417.67 114.304V102.343C421.725 102.58 424.985 101.712 427.449 99.738C429.914 97.8433 431.941 94.8433 433.531 90.7381L434.128 89.5539L408.845 31.4095H422.918L440.687 74.3961L455.952 31.4095Z" fill="black"/>
<rect x="498" y="1" width="351" height="118" rx="20" fill="#7042D2"/>
<path d="M579.091 53.4205L569.852 55.0568C569.466 53.875 568.852 52.75 568.011 51.6818C567.193 50.6136 566.08 49.7386 564.67 49.0568C563.261 48.375 561.5 48.0341 559.386 48.0341C556.5 48.0341 554.091 48.6818 552.159 49.9773C550.227 51.25 549.261 52.8977 549.261 54.9205C549.261 56.6705 549.909 58.0795 551.205 59.1477C552.5 60.2159 554.591 61.0909 557.477 61.7727L565.795 63.6818C570.614 64.7955 574.205 66.5114 576.568 68.8295C578.932 71.1477 580.114 74.1591 580.114 77.8636C580.114 81 579.205 83.7955 577.386 86.25C575.591 88.6818 573.08 90.5909 569.852 91.9773C566.648 93.3636 562.932 94.0568 558.705 94.0568C552.841 94.0568 548.057 92.8068 544.352 90.3068C540.648 87.7841 538.375 84.2045 537.534 79.5682L547.386 78.0682C548 80.6364 549.261 82.5795 551.17 83.8977C553.08 85.1932 555.568 85.8409 558.636 85.8409C561.977 85.8409 564.648 85.1477 566.648 83.7614C568.648 82.3523 569.648 80.6364 569.648 78.6136C569.648 76.9773 569.034 75.6023 567.807 74.4886C566.602 73.375 564.75 72.5341 562.25 71.9659L553.386 70.0227C548.5 68.9091 544.886 67.1364 542.545 64.7045C540.227 62.2727 539.068 59.1932 539.068 55.4659C539.068 52.375 539.932 49.6705 541.659 47.3523C543.386 45.0341 545.773 43.2273 548.818 41.9318C551.864 40.6136 555.352 39.9545 559.284 39.9545C564.943 39.9545 569.398 41.1818 572.648 43.6364C575.898 46.0682 578.045 49.3295 579.091 53.4205ZM606.164 40.6364V48.8182H577.562V40.6364H606.164ZM585.232 28.0909H595.426V77.625C595.426 79.6023 595.721 81.0909 596.312 82.0909C596.903 83.0682 597.664 83.7386 598.596 84.1023C599.551 84.4432 600.585 84.6136 601.698 84.6136C602.516 84.6136 603.232 84.5568 603.846 84.4432C604.46 84.3295 604.937 84.2386 605.278 84.1705L607.119 92.5909C606.528 92.8182 605.687 93.0455 604.596 93.2727C603.505 93.5227 602.141 93.6591 600.505 93.6818C597.823 93.7273 595.323 93.25 593.005 92.25C590.687 91.25 588.812 89.7045 587.38 87.6136C585.948 85.5227 585.232 82.8977 585.232 79.7386V28.0909ZM629.334 94.0568C624.425 94.0568 620.141 92.9318 616.482 90.6818C612.823 88.4318 609.982 85.2841 607.959 81.2386C605.936 77.1932 604.925 72.4659 604.925 67.0568C604.925 61.625 605.936 56.875 607.959 52.8068C609.982 48.7386 612.823 45.5795 616.482 43.3295C620.141 41.0795 624.425 39.9545 629.334 39.9545C634.243 39.9545 638.527 41.0795 642.186 43.3295C645.845 45.5795 648.686 48.7386 650.709 52.8068C652.732 56.875 653.743 61.625 653.743 67.0568C653.743 72.4659 652.732 77.1932 650.709 81.2386C648.686 85.2841 645.845 88.4318 642.186 90.6818C638.527 92.9318 634.243 94.0568 629.334 94.0568ZM629.368 85.5C632.55 85.5 635.186 84.6591 637.277 82.9773C639.368 81.2955 640.914 79.0568 641.914 76.2614C642.936 73.4659 643.448 70.3864 643.448 67.0227C643.448 63.6818 642.936 60.6136 641.914 57.8182C640.914 55 639.368 52.7386 637.277 51.0341C635.186 49.3295 632.55 48.4773 629.368 48.4773C626.164 48.4773 623.505 49.3295 621.391 51.0341C619.3 52.7386 617.743 55 616.72 57.8182C615.72 60.6136 615.22 63.6818 615.22 67.0227C615.22 70.3864 615.72 73.4659 616.72 76.2614C617.743 79.0568 619.3 81.2955 621.391 82.9773C623.505 84.6591 626.164 85.5 629.368 85.5ZM655.521 93V40.6364H665.373V48.9545H665.919C666.873 46.1364 668.555 43.9205 670.964 42.3068C673.396 40.6705 676.146 39.8523 679.214 39.8523C679.851 39.8523 680.601 39.875 681.464 39.9205C682.351 39.9659 683.044 40.0227 683.544 40.0909V49.8409C683.135 49.7273 682.407 49.6023 681.362 49.4659C680.316 49.3068 679.271 49.2273 678.226 49.2273C675.816 49.2273 673.669 49.7386 671.782 50.7614C669.919 51.7614 668.441 53.1591 667.351 54.9545C666.26 56.7273 665.714 58.75 665.714 61.0227V93H655.521ZM703.458 94.0568C698.299 94.0568 693.856 92.9545 690.128 90.75C686.424 88.5227 683.56 85.3977 681.538 81.375C679.538 77.3295 678.538 72.5909 678.538 67.1591C678.538 61.7955 679.538 57.0682 681.538 52.9773C683.56 48.8864 686.378 45.6932 689.992 43.3977C693.628 41.1023 697.878 39.9545 702.742 39.9545C705.697 39.9545 708.56 40.4432 711.333 41.4205C714.106 42.3977 716.594 43.9318 718.799 46.0227C721.003 48.1136 722.742 50.8295 724.015 54.1705C725.288 57.4886 725.924 61.5227 725.924 66.2727V69.8864H684.299V62.25H715.935C715.935 59.5682 715.39 57.1932 714.299 55.125C713.208 53.0341 711.674 51.3864 709.697 50.1818C707.742 48.9773 705.447 48.375 702.81 48.375C699.947 48.375 697.447 49.0795 695.31 50.4886C693.197 51.875 691.56 53.6932 690.401 55.9432C689.265 58.1705 688.697 60.5909 688.697 63.2045V69.1705C688.697 72.6705 689.31 75.6477 690.538 78.1023C691.788 80.5568 693.526 82.4318 695.753 83.7273C697.981 85 700.583 85.6364 703.56 85.6364C705.492 85.6364 707.253 85.3636 708.844 84.8182C710.435 84.25 711.81 83.4091 712.969 82.2955C714.128 81.1818 715.015 79.8068 715.628 78.1705L725.276 79.9091C724.503 82.75 723.117 85.2386 721.117 87.375C719.14 89.4886 716.651 91.1364 713.651 92.3182C710.674 93.4773 707.276 94.0568 703.458 94.0568Z" fill="white"/>
<path d="M802.025 48.8748L804.15 59.4998H754.85L756.975 48.8748H802.025ZM807.833 31.1665H751.167V38.2498H807.833V31.1665ZM807.833 41.7915H751.167L747.625 59.4998V66.5832H751.167V87.8332H786.583V66.5832H800.75V87.8332H807.833V66.5832H811.375V59.4998L807.833 41.7915ZM758.25 80.7498V66.5832H779.5V80.7498H758.25Z" fill="white"/>
</svg>
